# xmcd
#
# Track frame offsets:
#	183
#	15558
#	30958
#
# Disc length: 744 seconds
#
# Revision: 6
# Processed by: cddbd v1.5.2PL0 Copyright (c) Steve Scherf et al.
# Submitted via: audiograbber 1.83.01
#
DISCID=1202e603
DTITLE=Hape Kerkeling - Hurz!!!
DYEAR=1992
DGENRE=Comedy
TTITLE0=Hurz!!!
TTITLE1=Hurz!!! (Engl. Version)
TTITLE2=Hurz!!! (Habicht Mix feat. MC Lurch)
EXTD=
EXTT0=
EXTT1=
EXTT2=
PLAYORDER=
